<svg xmlns="http://www.w3.org/2000/svg" xmlns:xlink="http://www.w3.org/1999/xlink" width="512" height="256"><path fill="#08298c" d="M0 0h512v256H0z"/><g id="b"><path id="a" fill="#fff" d="m269.131 30.962-.985 7.879 5.419-5.798 7.192 3.363-3.837-6.946 5.429-5.793-7.798 1.499-3.835-6.949-.984 7.88-7.795 1.5z"/><use xlink:href="#a" transform="rotate(9.474 256 128)"/><use xlink:href="#a" transform="rotate(18.947 256 128)"/><use xlink:href="#a" transform="rotate(28.421 256 128)"/><use xlink:href="#a" transform="rotate(37.895 256 128)"/><use xlink:href="#a" transform="rotate(47.368 256 128)"/><use xlink:href="#a" transform="rotate(56.842 256 128)"/><use xlink:href="#a" transform="rotate(66.316 256 128)"/><use xlink:href="#a" transform="rotate(75.79 256 128)"/><use xlink:href="#a" transform="rotate(85.263 256 128)"/><use xlink:href="#a" transform="rotate(94.737 256 128)"/><use xlink:href="#a" transform="rotate(104.21 256 128)"/><use xlink:href="#a" transform="rotate(113.684 256 128)"/><use xlink:href="#a" transform="rotate(123.158 256 128)"/><use xlink:href="#a" transform="rotate(132.632 256 128)"/><use xlink:href="#a" transform="rotate(142.105 256 128)"/><use xlink:href="#a" transform="rotate(151.579 256 128)"/><use xlink:href="#a" transform="rotate(161.053 256 128)"/><use xlink:href="#a" transform="rotate(170.526 256 128)"/></g><use xlink:href="#b" transform="rotate(180 256 128)"/><path fill="#fff" d="M257.125 161c-5.312-5.313-10.08-13.369-13.099-21.743-.186.071-.368.151-.56.211l-1.379.415.45-1.368c.218-.664.417-1.289.604-1.897-2.18-6.953-3.087-13.948-2.017-19.617 5.542 8.777 5.125 12.61 2.125 21.75 8.5-2.557 11.583-18.64 2.875-25.5 11.625 2.944 18.917 7.777 22.375 17.75 4.334-11.056-8.416-23.89-15.375-24.5 6.792-6.473 18.875-4.14 23.875 3.25 1.584-8.64-17-16.223-24-10.75 1-11.973 8.583-18.973 15.75-18.25-8.916-5.806-20.667 2.61-25.375 14.75 0-12.64-10.208-27.223-21.125-27 5.639 5.639 6.833 9.944 12.5 29.5-9-9.14-27.083-5.306-29.75-1.125 9.75-.598 19.25 2.152 24.875 6.75-13.083-1.5-24.875 14.402-20 21.125 3.042-10.556 14.042-15.14 25.75-11.375-8.167 5.61-12.125 18.902-10.375 24.75 4-4.098 8.75-12.098 13.75-19.875-3.833 20.693 8.098 44.096 18.75 54.75 5.93 5.931 13.955 12.368 19.75 15H306c-22.5-7.808-36.611-14.737-48.875-27.001"/></svg>