<svg xmlns="http://www.w3.org/2000/svg" xmlns:osb="http://www.openswatchbook.org/uri/2009/osb" xmlns:xlink="http://www.w3.org/1999/xlink" width="1200" height="600" viewBox="0 0 1200 600"><title>Flag of Govisümber Aimag, Mongolia</title><defs><linearGradient osb:paint="solid" id="b"><stop offset="0" style="stop-color:#a70001;stop-opacity:1"/></linearGradient><linearGradient osb:paint="solid" id="a"><stop offset="0" style="stop-color:#ff4e3c;stop-opacity:1"/></linearGradient><linearGradient xlink:href="#a" id="j" x1="649.717" x2="712.392" y1="56.393" y2="56.393" gradientUnits="userSpaceOnUse"/><linearGradient xlink:href="#a" id="i" x1="475.959" x2="538.639" y1="61.633" y2="61.633" gradientUnits="userSpaceOnUse"/><linearGradient xlink:href="#a" id="c" x1="665.334" x2="799.205" y1="131.261" y2="131.261" gradientUnits="userSpaceOnUse"/><linearGradient xlink:href="#a" id="e" x1="400.692" x2="530.511" y1="142.584" y2="142.584" gradientUnits="userSpaceOnUse"/><linearGradient xlink:href="#a" id="g" x1="400.548" x2="799.781" y1="155.655" y2="155.655" gradientUnits="userSpaceOnUse"/><linearGradient xlink:href="#b" id="k" x1="658.82" x2="704.622" y1="58.575" y2="58.575" gradientUnits="userSpaceOnUse"/><linearGradient xlink:href="#b" id="d" x1="664.436" x2="798.998" y1="122.733" y2="122.733" gradientUnits="userSpaceOnUse"/><linearGradient xlink:href="#b" id="h" x1="402.017" x2="798.513" y1="147.701" y2="147.701" gradientUnits="userSpaceOnUse"/><linearGradient xlink:href="#b" id="f" x1="401.997" x2="534.475" y1="133.295" y2="133.295" gradientUnits="userSpaceOnUse"/></defs><path d="M0 452.362h1200v600H0z" style="opacity:1;fill:#08b846;fill-opacity:1;fill-rule:nonzero;stroke:none;stroke-width:2.5;stroke-linejoin:miter;stroke-miterlimit:4;stroke-dasharray:none;stroke-opacity:1" transform="translate(0 -452.362)"/><path d="M400 452.362h400v600H400z" style="opacity:1;fill:#1f83ff;fill-opacity:1;fill-rule:nonzero;stroke:none;stroke-width:2.5;stroke-linejoin:miter;stroke-miterlimit:4;stroke-dasharray:none;stroke-opacity:1" transform="translate(0 -452.362)"/><path d="M670.666 150.599c9.933-4.685 23.222-13.191 31.803-28.013 8.19-3.9 16.577-8.97 21.842-16.772 5.07 8.191 14.627 17.552 23.403 21.843 7.996 15.017 27.565 34.68 48.432 39.946" style="fill:none;fill-rule:evenodd;stroke:url(#c);stroke-width:25;stroke-linecap:butt;stroke-linejoin:miter;stroke-miterlimit:4;stroke-dasharray:none;stroke-opacity:1"/><path d="M798.509 157.418c-20.867-5.266-36.456-23.503-44.452-38.52-14.154-6.221-23.296-18.616-28.918-28.462-4.99 10.56-16.823 22.111-29.014 24.495-5.685 14.408-13.864 22.073-23.447 26.297" style="fill:none;fill-rule:evenodd;stroke:url(#d);stroke-width:4;stroke-linecap:butt;stroke-linejoin:miter;stroke-miterlimit:4;stroke-dasharray:none;stroke-opacity:1"/><path d="M524.495 156.715c-9.946-5.46-15.212-11.506-21.647-21.062-8.776-1.56-23.046-12.105-29.677-18.541-10.404 9.957-17.161 18.807-26.947 22.004-7.365 14.546-21.386 27.734-41.598 34.436" style="fill:none;fill-rule:evenodd;stroke:url(#e);stroke-width:25;stroke-linecap:butt;stroke-linejoin:miter;stroke-miterlimit:4;stroke-dasharray:none;stroke-opacity:1"/><path d="M402.626 163.552c20.212-6.702 30.668-17.023 36.863-31.18 9.556-1.95 28.367-20.58 34.217-28.185 7.801 7.995 22.071 21.856 33.773 22.831 3.51 9.166 11.408 19.015 17.747 21.842" style="fill:none;fill-rule:evenodd;stroke:url(#f);stroke-width:4;stroke-linecap:butt;stroke-linejoin:miter;stroke-miterlimit:4;stroke-dasharray:none;stroke-opacity:1"/><path d="M402.297 236.566c35.884-5.07 68.049-30.747 76.63-56.88 28.264-.886 56.386-24.02 70.826-51.8 21.842-9.752 33.867-22.698 47.908-42.59 12.092 20.282 28.71 36.577 54.453 44.768 17.477 22.776 39.993 39.166 68.687 43.96 18.722 25.744 41.754 42.677 76.078 50.868" style="fill:none;fill-rule:evenodd;stroke:url(#g);stroke-width:25;stroke-linecap:butt;stroke-linejoin:miter;stroke-miterlimit:4;stroke-dasharray:none;stroke-opacity:1"/><path d="M402.297 226.566c35.884-5.07 63.953-28.992 72.534-55.125 28.264-.886 59.897-21.876 69.656-51.41 21.843-9.751 40.35-26.29 54.392-49.302 12.091 20.283 29.442 43.484 58.306 50.505 14.514 26.929 39.603 39.556 68.297 44.351 18.722 25.743 38.243 40.336 72.567 48.527" style="fill:none;fill-rule:evenodd;stroke:url(#h);stroke-width:4;stroke-linecap:butt;stroke-linejoin:miter;stroke-miterlimit:4;stroke-dasharray:none;stroke-opacity:1"/><ellipse cx="507.299" cy="61.633" rx="31.34" ry="30.977" style="color:#000;clip-rule:nonzero;display:inline;overflow:visible;visibility:visible;opacity:1;isolation:auto;mix-blend-mode:normal;color-interpolation:sRGB;color-interpolation-filters:linearRGB;solid-color:#000;solid-opacity:1;fill:url(#i);fill-opacity:1;fill-rule:evenodd;stroke:none;stroke-width:.95885825;stroke-linecap:butt;stroke-linejoin:miter;stroke-miterlimit:4;stroke-dasharray:none;stroke-dashoffset:0;stroke-opacity:1;color-rendering:auto;image-rendering:auto;shape-rendering:auto;text-rendering:auto"/><ellipse cx="681.055" cy="56.393" rx="31.338" ry="31.251" style="color:#000;clip-rule:nonzero;display:inline;overflow:visible;visibility:visible;opacity:1;isolation:auto;mix-blend-mode:normal;color-interpolation:sRGB;color-interpolation-filters:linearRGB;solid-color:#000;solid-opacity:1;fill:url(#j);fill-opacity:1;fill-rule:evenodd;stroke:none;stroke-width:.96305275;stroke-linecap:butt;stroke-linejoin:miter;stroke-miterlimit:4;stroke-dasharray:none;stroke-dashoffset:0;stroke-opacity:1;color-rendering:auto;image-rendering:auto;shape-rendering:auto;text-rendering:auto"/><ellipse cx="681.721" cy="58.575" rx="22.901" ry="23.324" style="color:#000;clip-rule:nonzero;display:inline;overflow:visible;visibility:visible;opacity:1;isolation:auto;mix-blend-mode:normal;color-interpolation:sRGB;color-interpolation-filters:linearRGB;solid-color:#000;solid-opacity:1;fill:url(#k);fill-opacity:1;fill-rule:evenodd;stroke:none;stroke-width:1px;stroke-linecap:butt;stroke-linejoin:miter;stroke-miterlimit:4;stroke-dasharray:none;stroke-dashoffset:0;stroke-opacity:1;color-rendering:auto;image-rendering:auto;shape-rendering:auto;text-rendering:auto"/><ellipse cx="507.689" cy="61.428" rx="22.073" ry="21.669" style="color:#000;clip-rule:nonzero;display:inline;overflow:visible;visibility:visible;opacity:1;isolation:auto;mix-blend-mode:normal;color-interpolation:sRGB;color-interpolation-filters:linearRGB;solid-color:#000;solid-opacity:1;fill:#fff;fill-opacity:1;fill-rule:evenodd;stroke:none;stroke-width:1px;stroke-linecap:butt;stroke-linejoin:miter;stroke-miterlimit:4;stroke-dasharray:none;stroke-dashoffset:0;stroke-opacity:1;color-rendering:auto;image-rendering:auto;shape-rendering:auto;text-rendering:auto"/></svg>