<svg xmlns="http://www.w3.org/2000/svg" width="180.153" height="204.277" viewBox="0 0 180.153 204.277"><g style="display:inline" transform="translate(-5.503 -5.924)"><ellipse cx="95.579" cy="104.646" rx="90.077" ry="90.899" style="opacity:1;fill:#1c3481;fill-opacity:1;stroke:none;stroke-width:17.56896591;stroke-miterlimit:4;stroke-dasharray:none;stroke-opacity:1;paint-order:stroke fill markers"/></g><g style="display:inline" transform="translate(-5.503 -5.924)"><ellipse cx="95.909" cy="25.134" rx="17.962" ry="18.209" style="opacity:1;fill:#f1bc00;fill-opacity:1;stroke:#1c3481;stroke-width:2;stroke-miterlimit:4;stroke-dasharray:none;stroke-opacity:1;paint-order:stroke fill markers"/><path d="m71.532 206.44-4.122-32.293.044-.67.335-.204.553-.087 1.02.32 2.563.67 2.884.874 3.438.816 4.632.816 5.943.437 5.933.406 5.52.123 5.48-.617 5.52-.495 4.038-.783 4.944-1.236 5.273-1.441.871-.196.437.131.379.16.364.394-4.122 32.568-3.263.99-4.265.682-5.108.824-3.626.577-4.284.33h-4.12l-4.944.164-5.85-.659-6.097-.741-5.603-.824z" style="fill:#f1bc00;fill-opacity:1;stroke:#1c3481;stroke-width:1;stroke-linecap:butt;stroke-linejoin:miter;stroke-miterlimit:4;stroke-dasharray:none;stroke-opacity:1"/><path d="m42.998 41.133-7.108-.058-3.67 3.554-4.603 4.545-3.671 5.36-3.321 5.593-3.496 6.933-2.389 5.36-1.922 5.71-1.34 4.37-.99 5.418-.933 5.768-.291 5.186-.233 6.06.408 11.419.932 5.593 1.107 5.185 1.631 6.06 2.098 4.835 2.33 5.302.932 1.806 1.573 1.457 1.923.757 1.573.233 1.515.408.874.233.466.35.583.99.757 1.573 1.398 2.156 1.515 2.447 2.098 2.389 2.447 2.505 2.855 2.739 3.728 3.554 2.913 2.388 2.214 1.574 1.166.233 1.165-.059 1.107-.35.874-.465.816-.816.815-1.224.35-1.573.175-2.563-.233-1.107-.175-1.748-.583-1.515-.699-1.34-.932-1.049-1.398-1.282-2.04-1.281-1.573-1.282-1.34-1.398-.932-1.107-.583-2.273-.582-2.796.233-1.457.116-2.039.7-1.515-5.477-12.293-3.613-13.284-.407-13.634.699-9.438 4.02-13.517 6.35-9.788 4.72-6.293 6.933-6.583 3.904-3.554-.408-3.904v-5.185l3.263-1.049 2.913-1.515 1.864-1.573.641-1.398.35-1.573-.175-1.865-.641-2.33-1.049-1.632-.99-.757-1.34-.524-1.923-.117-1.282.408-2.156.99-1.98.99-3.962 2.157-1.981 1.165-3.787 2.33-2.447 1.632-1.399 1.34zM155.736 161.737l-2.389 2.972-2.796 2.913-3.263 2.447-1.69.99-1.98.175-1.457-.466-1.34-.932-1.107-.99-.524-1.05-.35-1.165-.058-1.748.35-2.155.815-2.04.99-1.747 1.224-1.573 1.631-1.69 1.632-.874 1.223-.816 1.049-1.165.99-1.223.292-1.632.291-2.738-.233-1.865-.932-2.33.175-1.923 3.204-5.302 3.787-8.506 3.146-11.944 1.166-17.479-3.38-14.449-6.933-12.526-8.856-10.546-8.662-6.717.247-4.862.083-5.355-3.296-1.566-2.802-1.483-1.648-1.236-1.11-1.59-.058-1.282.233-1.69.816-1.748.99-1.34 1.05-1.049 1.048-.699 1.457-.087 2.3.35 2.186.64 2.65 1.136 4.02 2.273 2.972 1.922 3.642 3.059 2.738 2.33h8.099l3.554 3.584 2.854 3.758 2.87 3.863 2.884 4.367 2.513 3.79 2.39 5.686 2.471 5.809 1.648 4.12 1.277 4.078 1.03 4.079.824 4.12.33 4.82.123 4.16.255 8.278-1.198 16.371-2.188 9.175-2.06 6.674-2.76 6.675-1.854 1.36-1.195.947-1.606.288-1.607.247-1.525.495-3.295 5.479z" style="fill:#f1bc00;fill-opacity:1;stroke:none;stroke-width:1px;stroke-linecap:butt;stroke-linejoin:miter;stroke-opacity:1"/></g><g style="display:inline" transform="translate(-5.503 -5.924)"><circle cx="96.074" cy="25.381" r="13.27" style="opacity:1;fill:#fff;fill-opacity:1;stroke:#1c3481;stroke-width:1.99201334;stroke-miterlimit:4;stroke-dasharray:none;stroke-opacity:1;paint-order:stroke fill markers"/><g style="fill:#009847;fill-opacity:1;stroke:none"><path d="m56.98 37.87-2.446 2.215-3.263 1.165-2.68 1.165-2.563.932-3.496 1.515-2.797 2.214-1.049 2.214.117 1.049 1.9-.404 1.937-.783 2.019-.783 2.307-1.153 2.018-.824 2.06-1.236 1.937-1.195 1.318-.989 1.112-1.277.865-1.4zM30.938 67.119l2.039-1.806 2.388-2.04 2.331-1.98 2.214-2.506 1.806-1.98 1.865-1.865 2.155-2.33 1.69-2.506-1.865.524-2.097.99-2.272 1.224-3.321 1.923-2.156 1.69-2.097 2.796-1.457 2.33-.99 2.331-.7 2.156zM25.403 74.227l1.281-2.33 1.166-2.68.582-2.914 1.165-4.195.117-1.748 1.398-3.845 1.166-1.748.474-1.495.577-2.39-1.277.66-1.772 1.524-1.895 1.648-1.895 2.595-.988 2.678-.289 1.978-.37 2.966-.124 3.872.165 2.72zM41.775 158.697l1.483 2.06 2.719 2.802.247 1.483-1.4.412-1.319-.906-1.565-1.896-1.236-1.483.164-1.318.165-.742zM146.939 164.65l1.165.467 1.34-.874.99-1.166.933-1.107.233-1.223-.233-1.107-.933-.117-.874.99-1.048.933-.99 1.165-.525 1.34zM152.062 156.39l1.73-.947.865-1.071.7-.289.66-.165.288-1.112 1.277-1.4 2.101-1.566 3.296-2.101 3.42-1.4 3.378-1.196 2.1-2.636.948-1.937.783-1.03.989-1.854.453-1.36-1.03.207-1.153.824-1.895 1.442-2.76 1.442-2.143 1.565-3.131 2.019-1.936 1.566-1.484 1.565-1.771 1.854-1.236 1.648-.041-2.39-.206-4.243.082-3.172.083-3.255-1.113.742-.659 1.112-.989 2.019-.947 2.76-.453 2.678v2.019l-.165 3.584-.041 2.018zM40.61 155.736l.29-.99.233-1.399-.174-1.864-.175-2.33-.291-2.273-.175-1.515-.525-1.98-.524-1.399-.757-1.98-.874-1.516-.7-1.048-.524-.059-.233.99.35 1.283.175 1.048.116 1.981.408 1.981-.408 1.923v3.612l-1.457-1.165-.932-1.398-1.34-1.69-1.631-1.34-1.398-1.107-2.506-1.282-1.165-.874-1.806-1.107-1.224-.99-1.806-1.34-1.456-1.515-1.166-1.165-.815-.816v2.098l.815 1.514.933 1.865.524 1.107 1.107.99.583 1.515 1.456.99 1.865.467 1.281.64 1.399.467 1.165.582 1.34.874 1.34 1.165 1.223.99 1.515 1.283 1.166 1.107.64 1.398.874.291h.641l1.049.7.408 1.106.408.583.582.233zM134.82 37.987l2.33 1.748 2.914 1.049 3.379 1.165 2.796 1.165 2.447.933 2.447 1.747 2.214 2.214.7 1.981.116 1.282-2.33-.932-2.33-.816-2.564-1.165-2.68-.816-2.448-1.281-2.097-1.399-1.398-1.165-1.748-1.631-1.515-1.981-.397-.985-.268-.865.165-.35zM159.024 49.77l.948 1.071 2.142 1.854 1.277 1.071 2.019 2.143 1.112 1.977.7 2.513.536 2.472.206 2.019.082 2.513-.123 3.213.082 1.566-.37 1.771-.577-1.565-.495-1.277-.782-.99-.618-1.07-.042-1.113s-.535-1.689-.535-1.854c0-.164-.124-1.36-.124-1.36l-.33-1.276s-.453-.7-.494-.865-.659-1.154-.659-1.154l-.288-1.071-.083-1.154-.247-.782-.33-.783-.411-.742-.248-.865-.33-.783-.37-.7-.453-.783-.124-.618-.494-.906-.33-.7-.453-1.03zM144.23 49.32l1.572.786 2.127.786 1.777.816 3.175 1.923 1.836 1.02 1.951 1.573 1.428 1.485.961 1.136 1.195 1.748.815 1.253.612 1.544.64 2.068.234 1.107.087 1.195-1.398-.408-1.34-1.195-1.457-1.048-1.951-1.807-.933-1.077-1.573-1.34-1.806-2.069-1.398-1.573-1.398-1.486-1.253-1.544-1.398-1.369-.874-.815-.787-.787-.612-1.049zM179.54 120.466l-.329 1.153-1.153 1.113-.866 1.03-.782.988-.783.948-.865.989-.7 1.112-.495 1.112-.37.783-.33 1.277-.454 1.113-.164 1.318-.042 1.277.289.412.37-.124.495-.659.37-.659.742-.783.7-.7.413-.783.576-1.153.577-.824.783-.907.536-.988.288-.948.37-1.318.536-1.36.33-.947.247-1.03.041-.866z" style="fill:#009847;fill-opacity:1;stroke:none;stroke-width:1px;stroke-linecap:butt;stroke-linejoin:miter;stroke-opacity:1"/><path d="m159.519 143.784-.742-1.978-.33-3.172.412-2.019.042-1.483.123-2.266v-1.648l-.082-1.648.165-.988.494-.989.66-1.4 1.276-1.607v2.801l.083 3.625v3.05l.164 3.5-.453 2.802-.947 1.978-.7 1.442zM164.174 139.911l-.124-4.284.206-4.203.577-1.236.7-1.03.948-.782.824-1.071.783-.783 1.03-.865.865-.742.741-.618 1.319-.824.988-.947.371-.33-.041 1.442-.165 1.524-1.03 2.431-.824 1.854-.741 1.607-1.319 1.812-1.194 1.607-.99 1.524-.988 1.401-.906 1.112zM33.824 143.66l.37-2.225.042-3.295-.165-4.45.082-2.966-.494-3.296-.907-1.854-1.112-1.112-.577 1.813.041 1.812-.082 4.203.124 3.501.206 2.184.164 1.977.948 1.937.948 1.606.412.454zM20.712 134.5l.117-1.923-.058-1.719-.612-1.457-1.107-1.864-1.952-2.476-1.223-1.631-1.166-1.603-1.048-1.98-.38.873.117 1.282.525 1.835.786 1.836.7 1.485 1.543 2.39 1.195 1.601 1.049 1.399.932 1.136zM28.549 140.034l.175-2.447.029-2.272.204-2.68-.408-2.127-1.748-2.184-1.66-1.748-1.632-1.428-1.923-1.34-1.048-1.165-.641 1.136.204 1.631 1.281 2.593 1.282 2.098 1.165 2.243 1.253 2.097.583 1.253.786 1.223.845 1.224z" style="fill:#009847;fill-opacity:1;stroke:none;stroke-width:1px;stroke-linecap:butt;stroke-linejoin:miter;stroke-opacity:1"/><path d="M35.513 66.332 33.7 68.268l-2.843 2.225-1.442 1.606-1.648 2.184-1.318 1.524-1.4 2.184-1.113 2.06-.824 1.771-.906 1.648-.66 1.565-.659-2.389v-3.914l-.123-2.39.247-3.254-.288-3.09-1.813 3.296-1.154 2.925-.988 3.296-1.484 4.49-.988 3.502-.206 3.626-.165 4.037.082 3.46.042.66h-.824l-.66-.288-.7.576-.7.948-.371 1.4.123 2.555.083 4.779-.124 4.861.536.865 1.236.824.7.66.783.823.783 1.484 1.07 1.565.825 1.607.618 1.112.577-1.112-.124-.989-.082-1.442v-1.607l-.33-.906-.412-1.071v-1.03l.165-.618.618.288.33 1.072.864 2.06.66 1.318.906 1.03 1.4 1.03 1.607 1.524.454-2.678.082-1.936.041-1.236-.041-1.566.206-.988.247-1.113 1.113.165-.618 1.813-.124 2.842-.124 1.278.206 1.895.7 1.606.907 2.102.906 1.524.33-2.554.247-3.502.165-2.72.247-3.213.33-3.502.206-2.636.865-3.049 1.318-2.925-1.689-.082-1.277-.783-1.236-1.936.536-1.607.824-1.936 1.112-1.978 1.69-4.079.658-2.142.742-2.06.412-2.43-.453-2.925-1.442 1.895-.865 1.277-1.73 1.771-1.608 1.648-1.36 1.071-.617-.164-.7-.33.288-.7.742-.907 1.812-2.224 1.607-1.772 1.154-1.195 1.565-1.854 1.69-2.39 1.606-3.46.824-2.39.659-2.965.206-1.401zM165.524 126.46l1.078-2.186 1.078-1.893.466-2.156-.087-2.971-.262-1.515-.32-1.34.174-1.02.553-.437.525-.116.116.961-.204 1.457.088 1.485-.058 2.214.233 2.04.466 1.252.67.583.699.058.466-.932.816-1.398 1.752-2.223 1.318-1.4.99-2.06.164-.907.659-1.07.494.329-.33 1.4-1.153 2.39-.741 2.225-.165 1.483v1.648l1.236-.247 1.4-1.483 1.072-1.401 1.4-1.813 1.319-1.236.741-1.4.66-1.484-.096-6.385.058-2.097v-1.952l-.466-1.078-.204-1.69-.495-.64-.932-.583-.845.35-.379.436-.553-.844.233-1.632.058-1.223.233-1.107.233-1.107-.466-3.321-.35-4.545-.99-3.379-1.952-5.185-1.864-4.166-1.049-1.515-.582-1.194v1.34l-.263 3.35.32 3.175.03 2.33-.087 2.71-.525.35-.64-.554-.642-1.398-.786-1.107-.932-1.457-1.97-3.29-2.225-2.307-1.647-1.812-2.143-1.895-1.977-2.225-2.143-1.483-.741-.742-.082 1.401-.083 2.225 1.154 3.048 1.483 2.802 1.318 2.06 1.978 3.048 2.307 2.143 2.554 2.307 1.565 1.565.495 1.236-.33.989-.659.577-.989-.989-2.06-2.06-1.73-1.565-1.483-2.637-.906-1.813-.66 1.154.083 2.142.082 1.648.083 1.895.576 1.813 1.484 2.554 1.4 2.884 1.154 1.648 1.153 2.719.083 1.73-.824 1.4-.906.825-1.566-.247-.742-.577.412 2.225.495 2.06.824.823.082.99-.041 5.56.247 4.533-.123 3.831.164 2.843.742 1.153z" style="fill:#009847;fill-opacity:1;stroke:none;stroke-width:1px;stroke-linecap:butt;stroke-linejoin:miter;stroke-opacity:1"/></g></g><g style="display:inline" transform="translate(-5.503 -5.924)"><path d="m16.372 113.991.903-.466.699-.845.291-3.7.117-1.573-.058-1.078-.03-.873.234-1.05.611-.902.729-.845.204-.554.29.117.38.146.378-.059.554-.262.437.67.087.845.233.524.291.758v.786l.059 1.719.145 1.544.03.787.058 1.31.32.67.641.117.03.7.407.582.757.35.641-.496.088-.728.262-.466.35-.088.145-.961.058-1.398-.058-.933v-1.514l.204-1.166.67-.699.524-.728-.99-.262-.437.378v-.699l-.058-.932-.204-.67-.787.524-.204.787-.32.728-.466.204-.291-.728-.496-.7-.786-.436-1.078-.583.437-.524.379-.7.174-.844-.087-1.107.117-2.185.058-.961.378-.612.729-1.311 1.282-.845-.7-.408-1.194.059h-.437l.117-.758.058-1.223-.612-1.399-.466.874-.175 1.02-.116.99-.67.03-.466-.35-.554-.466-.524-.641-.758-.554-.961-.116.379.553.495.962.291 1.048.058 1.37-.35 1.777-.407 1.631-.117 1.69.234 1.456.903 1.486-1.544 1.34-.641-.175-.641-.495-.32-.67-.408-1.049-.263-.67-.378 1.107-.117 1.02.03 1.282-.467.67-.32-.35s0-.262-.117-.379c-.116-.116-.466-.495-.466-.495l-.757-.058-.583.262-.291.495.408.117.378-.088.233.233.117 1.107.583 1.69.32 3.146.03 1.602.349 1.166.728.553.524.35zM176.822 114.204l1.153-.824.989-.412.082-1.319.083-1.895.494-1.73.33-1.895 1.07-1.566.166-1.4-.342-.446-.087-.466-.495.612-.233.466-.845.524-.64-.087.116-.816-.175-.786-.554-.758-.67-.786-.087 1.048.058.7-.262.757-.233.495-.874-.466-1.078-.116-.408-.32-.378-1.079.437-.32.524-.495.146-.787-.117-1.282v-1.66l-.175-1.748-.174-.99-.146-1.253.116-.7.408-.495.204-.699v-.495l-.379-.961-.553-.437.087.874-.233.611-.582.408-.496.466-.437.117-.145-.583-.408-.786-.466-.554-.583-.67.03-.757-.554.612-.291.932-.059 1.136-.204 1.078-.35.32-.495-.553-.64-.496-.816.059-.35.233.612.32.495.495.612 1.748.7 2.884.232 1.806.408 1.69.32.932-.29.729-.409.466-.582.64-.35.408-.378.38-.408-.554-.466-.845-.554-.787-.728-.611-.641-.175.291.903.03.903v.728l-.117.35-.7.029-.407-.35-.962-.728-.437-.67-.378.291-.088.962.204.786.729.67.553.583.67 1.223.175 1.282-.175 1.457.379 1.398 1.293 2.437.66.536.74-.082.578-.495.453-.783.247-1.03.33-1.689v-1.565l.205-1.318v-2.143l.083-1.03.947-1.277.536-.37.618-.124.742.453.453.37.576.66.454 1.607-.042 1.318-.04 1.936.205 2.184.165 1.4.742 1.072.7.659z" style="fill:#fffffe;fill-opacity:1;stroke:none;stroke-width:1px;stroke-linecap:butt;stroke-linejoin:miter;stroke-opacity:1"/><ellipse cx="96.285" cy="104.753" rx="65.682" ry="65.486" style="opacity:1;fill:#f1bc00;fill-opacity:1;stroke:#000;stroke-width:1.52253163;stroke-miterlimit:4;stroke-dasharray:none;stroke-opacity:1;paint-order:stroke fill markers"/></g><g style="display:inline" transform="translate(-5.503 -5.924)"><ellipse cx="96.133" cy="104.232" rx="45.245" ry="45.536" style="opacity:1;fill:#1c3481;fill-opacity:1;stroke:none;stroke-width:4.62500477;stroke-miterlimit:4;stroke-dasharray:none;stroke-opacity:1;paint-order:stroke fill markers"/></g><path d="m29.928 114.583 19.65.123 4.615-4.16h74.692l4.202 4.202h18.086l-46.996-41.639-1.719-1.078-1.282-.437-1.748-.116-1.398.116-1.98.233-1.72.7-1.252.99-.903.99 2.845 3.76 2.019 2.513.124.762-1.092.103-5.459-7.086-1.38-1.998-1.01-1.236-1.524-.865-1.318-.495h-1.154l-1.483-.082-1.318.33-1.154.494-1.483.824-6.138 5.685-5.562 4.944z" style="fill:#fff;fill-opacity:1;stroke:#1c3481;stroke-width:1px;stroke-linecap:butt;stroke-linejoin:miter;stroke-opacity:1"/></svg>